<?xml version="1.0" standalone="no"?>
<!DOCTYPE svg PUBLIC "-//W3C//DTD SVG 20010904//EN"
 "http://www.w3.org/TR/2001/REC-SVG-20010904/DTD/svg10.dtd">
<svg version="1.0" xmlns="http://www.w3.org/2000/svg"
 width="4001.000000pt" height="4000.000000pt" viewBox="0 0 4001.000000 4000.000000"
 preserveAspectRatio="xMidYMid meet">

<g transform="translate(0.000000,4000.000000) scale(0.100000,-0.100000)"
fill="#000000" stroke="none">
<path d="M13200 30289 c-803 -36 -1556 -141 -2235 -314 -417 -106 -740 -229
-1059 -402 -1237 -674 -2071 -1899 -2246 -3301 -128 -1027 65 -2276 480 -3101
122 -243 307 -521 450 -675 39 -42 42 -48 20 -41 -71 22 -348 189 -518 313
-285 207 -620 517 -851 787 -318 372 -641 864 -857 1307 l-43 89 -5 -43 c-44
-324 -44 -978 0 -1423 97 -983 395 -1823 892 -2515 270 -376 644 -754 1035
-1047 625 -468 1388 -844 2377 -1173 595 -198 1104 -336 2595 -704 769 -190
1233 -326 1605 -473 944 -373 1354 -840 1327 -1513 -23 -584 -356 -1049 -962
-1346 -401 -196 -847 -286 -1345 -271 -361 11 -642 64 -929 174 -548 210 -938
576 -1141 1070 -94 229 -149 506 -151 763 -4 454 -110 781 -354 1095 -245 313
-602 528 -1010 608 l-110 21 -2410 3 c-1325 2 -2536 2 -2689 1 l-280 -3 430
-371 c236 -204 454 -398 485 -430 159 -168 270 -381 319 -610 17 -80 23 -157
30 -404 16 -530 58 -937 141 -1354 229 -1146 705 -2123 1429 -2931 1117 -1246
2771 -2027 4832 -2284 538 -68 858 -86 1513 -86 883 0 1504 54 2255 195 2390
451 4128 1645 4993 3430 412 850 617 1807 617 2885 0 519 -42 955 -135 1390
-210 981 -638 1779 -1320 2460 -801 800 -1898 1389 -3525 1890 -476 147 -1037
299 -2005 545 -1194 304 -1673 457 -2130 680 -254 124 -429 243 -576 389 -238
237 -328 450 -316 746 22 556 403 906 1122 1030 288 50 158 48 3315 55 2753 6
2994 8 3105 23 729 105 1327 399 1825 897 85 85 195 207 244 270 49 63 359
520 690 1015 l601 900 3 -8933 2 -8933 1283 4 c1395 4 1362 3 1661 63 600 119
1162 420 1596 854 495 493 792 1099 897 1825 15 110 17 290 20 2132 l4 2012
1582 4 c1708 4 1644 2 1942 57 1363 254 2435 1305 2719 2665 65 312 76 503 76
1358 l0 657 -3160 0 -3160 0 0 1565 0 1564 1958 4 c1929 3 1959 3 2102 24 312
45 578 115 835 218 1135 454 1939 1474 2114 2680 11 77 25 219 31 315 13 234
13 1660 0 1660 -5 0 -10 -13 -10 -29 0 -103 -93 -517 -164 -733 -124 -379
-343 -813 -578 -1148 -331 -472 -751 -881 -1228 -1195 -620 -409 -1318 -670
-2095 -784 -77 -12 -147 -21 -154 -21 -8 0 52 41 134 90 560 342 1062 802
1367 1255 291 431 494 993 574 1585 33 246 30 657 -8 908 l-10 72 -9842 -2
c-5412 0 -9920 -5 -10016 -9z"/>
</g>
</svg>
