<svg xmlns="http://www.w3.org/2000/svg"
    style="shape-rendering:geometricPrecision;text-rendering:geometricPrecision;image-rendering:optimizeQuality;fill-rule:evenodd;clip-rule:evenodd"
    viewBox="880 40 2070 2070">
    <path fill="#5164f6"
        d="M1880.5 45.5c284.52-5.463 531.18 87.037 740 277.5 202.4 194.038 310.9 431.871 325.5 713.5 7.04 266.58-73.96 501.91-243 706-156.51 181.73-353.01 296.9-589.5 345.5-243.24 44.68-473.9 9.01-692-107-228.97-128.65-388.47-316.49-478.5-563.5-68.107-200.36-75.774-403.03-23-608 65.692-235.372 196.52-425.206 392.5-569.5 169.64-121.049 358.97-185.883 568-194.5Z"
        style="opacity:1" />
    <path fill="#fefffe"
        d="M1729.5 572.5c1-.086 1.83.248 2.5 1 12.8 23.262 24.8 46.928 36 71 67.01-10.349 131.34-13.682 193-10l3-1 17 2 3-1c15.31 1.446 30.31 3.113 45 5 .33-.333.67-.667 1-1l8 2c.33-.333.67-.667 1-1a620.938 620.938 0 0 0 30.5 5 1488.5 1488.5 0 0 0 22.5-46 249.636 249.636 0 0 1 15-26c94.55 16.344 185.39 44.511 272.5 84.5 156.29 229.142 222.62 476.81 199 743l1 1c-.67 3.67-1.33 7.33-2 11 .7 1.49.36 2.99-1 4.5-101.64 74.91-213.14 131.24-334.5 169-27.42-36.48-51.59-75.15-72.5-116a965.614 965.614 0 0 0 112-54.5c1.33-.67 1.33-1.33 0-2-8.92-6.71-17.76-13.55-26.5-20.5-144.97 66.24-290.97 88.9-438 68-80.26-10.12-158.26-32.78-234-68l-27.5 21.5c36.1 21.22 73.77 39.55 113 55-21 40.96-45.17 79.79-72.5 116.5-121.4-37.78-232.9-94.11-334.5-169-28.74-271.73 36.93-524.897 197-759.5 86.77-39.759 177.11-67.925 271-84.5Z"
        style="opacity:1" />
    <path fill="#5164f6"
        d="M1685.5 995.5c55.2-1.805 95.03 22.2 119.5 72 21.11 52.05 16.11 101.38-15 148-36.34 43.93-80.51 57.1-132.5 39.5-36.61-16.95-60.78-44.78-72.5-83.5-13.54-46.83-5.2-91.17 25-133 19.76-23.8 44.93-38.13 75.5-43Zm441 0c54.58-2.06 94.41 21.61 119.5 71 19.55 44.74 17.88 89.41-5 134-27.44 45.35-66.1 66.02-116 62-49.42-11.08-82.08-40.75-98-89-14.52-50.18-5.52-96.18 27-138 19.38-22.11 43.55-35.44 72.5-40Z"
        style="opacity:1" />
</svg>